PathFileType	4	(X/Y/Z)	/Users/itak/Documents/Research/Walk-IL/dataset/trc/00121_00007.trc
DataRate	CameraRate	NumFrames	NumMarkers	Units	OrigDataRate	OrigDataStartFrame	OrigNumFrames
100.000000	100.000000	4	53	mm	100.000000	361	722
Frame#	Time	RPSI			LPSI			L3			STRN			T10			C7			CLAV			RBAK			LBAK			LSHO			LUPA			LAEL			LAOL			LWTS			LWPS			LFRA			LIFD			LHPS			LHTS			RSHO			RUPA			RAEL			RAOL			RWTS			RWPS			RFRA			RIFD			RHTS			RHPS			RBHD			LFHD			RFHD			LBHD			LHIP			RHIP			RASI			LASI			LKNE			LTHI			LANK			LTIP			LTOE			LMT1			LMT5			LHEE			RKNE			RTHI			RANK			RTIP			RTOE			RMT1			RMT5			RHEE			
		X1	Y1	Z1	X2	Y2	Z2	X3	Y3	Z3	X4	Y4	Z4	X5	Y5	Z5	X6	Y6	Z6	X7	Y7	Z7	X8	Y8	Z8	X9	Y9	Z9	X10	Y10	Z10	X11	Y11	Z11	X12	Y12	Z12	X13	Y13	Z13	X14	Y14	Z14	X15	Y15	Z15	X16	Y16	Z16	X17	Y17	Z17	X18	Y18	Z18	X19	Y19	Z19	X20	Y20	Z20	X21	Y21	Z21	X22	Y22	Z22	X23	Y23	Z23	X24	Y24	Z24	X25	Y25	Z25	X26	Y26	Z26	X27	Y27	Z27	X28	Y28	Z28	X29	Y29	Z29	X30	Y30	Z30	X31	Y31	Z31	X32	Y32	Z32	X33	Y33	Z33	X34	Y34	Z34	X35	Y35	Z35	X36	Y36	Z36	X37	Y37	Z37	X38	Y38	Z38	X39	Y39	Z39	X40	Y40	Z40	X41	Y41	Z41	X42	Y42	Z42	X43	Y43	Z43	X44	Y44	Z44	X45	Y45	Z45	X46	Y46	Z46	X47	Y47	Z47	X48	Y48	Z48	X49	Y49	Z49	X50	Y50	Z50	X51	Y51	Z51	X52	Y52	Z52	X53	Y53	Z53	

362	3.61	444.4005737304688	1096.583740234375	-885.0557250976562	398.7276306152344	1088.152954101562	-759.3869018554688	428.9102172851562	1130.886474609375	-819.1259765625	213.7998657226562	1316.058959960938	-893.1686401367188	447.2821960449219	1280.174438476562	-823.474853515625	395.4118041992188	1569.156982421875	-803.3692016601562	234.95458984375	1451.60546875	-866.6687622070312	485.9452819824219	1398.80126953125	-882.616943359375	378.0296936035156	1540.397705078125	-706.1519775390625	279.3792114257812	1514.590942382812	-662.0318603515625	310.2223205566406	1383.81689453125	-595.1558837890625	347.8353271484375	1170.907470703125	-579.6414184570312	421.5071105957031	1177.696411132812	-630.469482421875	313.3062438964844	899.5178833007812	-640.7667236328125	394.9562377929688	890.9592895507812	-604.5968627929688	357.9898376464844	1054.105590820312	-579.1083374023438	353.8036193847656	713.2923583984375	-677.0137329101562	385.1136474609375	811.3622436523438	-610.251708984375	320.484130859375	807.137451171875	-635.3158569335938	392.1719665527344	1565.288208007812	-991.7224731445312	429.2609252929688	1500.283203125	-1055.389404296875	441.0682983398438	1212.768920898438	-1126.100830078125	428.0812072753906	1193.300048828125	-1030.467041015625	257.2037353515625	1003.648559570312	-1183.028564453125	333.5677490234375	975.7340087890625	-1201.697143554688	410.3953247070312	1145.986083984375	-1158.33984375	194.8785552978516	820.2329711914062	-1207.761840820312	208.8705596923828	907.9113159179688	-1215.974975585938	279.5525817871094	889.6495361328125	-1233.031127929688	315.2958068847656	1758.603515625	-882.814453125	148.6056823730469	1753.853393554688	-737.6358642578125	138.5200653076172	1782.22998046875	-865.6893920898438	330.0584716796875	1735.231323242188	-751.4138793945312	266.7691955566406	989.7339477539062	-704.3147583007812	384.9830627441406	1006.120971679688	-1048.03076171875	287.2069702148438	1068.375244140625	-1034.96142578125	188.8449554443359	1057.0390625	-787.4998168945312	92.40436553955078	531.3290405273438	-814.6334228515625	168.2180786132812	647.8724975585938	-752.0830078125	-14.34537410736084	41.26021575927734	-904.1605834960938	84.58824157714844	267.2723083496094	-829.9015502929688	-220.6285552978516	137.0980834960938	-938.8779907226562	-153.6477203369141	109.5458068847656	-979.225830078125	-127.2713394165039	81.50381469726562	-872.4376220703125	48.77820587158203	28.20870590209961	-969.5158081054688	459.2138671875	518.1630859375	-1018.776550292969	395.235595703125	794.319580078125	-1049.971801757812	704.638916015625	60.82421493530273	-918.2547607421875	529.2924194335938	395.6689147949219	-1008.030700683594	480.2108459472656	35.05221557617188	-1000.6298828125	510.705810546875	35.74802780151367	-931.0657958984375	604.5233154296875	36.14069747924805	-1009.085083007812	727.9393310546875	74.46282958984375	-847.1421508789062	
363	3.62	432.5845336914062	1096.131469726562	-887.3917236328125	387.6431884765625	1087.624877929688	-761.4553833007812	417.5811157226562	1130.183715820312	-821.4034423828125	202.6052398681641	1315.752685546875	-893.8109741210938	436.3911437988281	1279.380859375	-825.60302734375	385.4230041503906	1568.506225585938	-804.8165893554688	224.2403411865234	1451.19482421875	-867.22119140625	475.0576171875	1397.951782226562	-884.7286376953125	368.5614318847656	1539.6484375	-707.4880981445312	270.1006164550781	1514.036010742188	-662.7858276367188	301.1815795898438	1383.115844726562	-596.3054809570312	338.7523803710938	1170.19140625	-581.474853515625	411.9806823730469	1176.963012695312	-632.8153686523438	303.1920166015625	898.9353637695312	-642.9112548828125	385.0782165527344	890.1474609375	-607.27197265625	348.4664916992188	1053.3388671875	-581.2304077148438	343.3450317382812	712.6951293945312	-680.0620727539062	375.0374755859375	810.555908203125	-613.1400756835938	310.307861328125	806.50732421875	-637.8220825195312	380.9728088378906	1564.688110351562	-993.2247924804688	417.6405334472656	1499.514038085938	-1056.959594726562	429.4909973144531	1211.728881835938	-1126.513793945312	416.6311645507812	1192.68701171875	-1030.865600585938	246.1360778808594	1001.935791015625	-1182.374877929688	322.5810241699219	974.251220703125	-1201.0888671875	398.9891052246094	1144.830444335938	-1158.51708984375	184.3390045166016	818.2489624023438	-1206.313842773438	198.0328979492188	905.9201049804688	-1214.862915039062	268.7587890625	887.81494140625	-1232.025512695312	305.3180847167969	1758.052368164062	-883.8943481445312	139.8177947998047	1754.026611328125	-737.3184204101562	128.7368774414062	1782.203857421875	-865.4014892578125	321.1217041015625	1734.866088867188	-752.591552734375	256.0356750488281	989.519775390625	-705.4722290039062	372.3391418457031	1005.504638671875	-1049.9658203125	274.5766296386719	1067.927368164062	-1036.419677734375	177.5417327880859	1056.718017578125	-788.3438720703125	82.76689147949219	530.2091064453125	-815.0983276367188	157.6242218017578	647.6011962890625	-753.5657348632812	-17.77353096008301	38.95994567871094	-903.5641479492188	77.9234619140625	265.6988830566406	-829.9951782226562	-226.4282531738281	130.3727874755859	-934.5	-159.6707611083984	104.220573425293	-976.0550537109375	-130.5914306640625	77.09481811523438	-869.7620849609375	44.28200531005859	26.91928863525391	-969.9912719726562	449.1943054199219	517.86181640625	-1021.585693359375	383.3399047851562	793.84423828125	-1052.123168945312	703.9600219726562	64.66673278808594	-919.6618041992188	522.2041625976562	396.6488037109375	-1010.488464355469	480.1083068847656	35.03881072998047	-1000.587951660156	510.5780029296875	36.45678329467773	-931.4074096679688	604.0700073242188	36.17787170410156	-1009.613891601562	726.9551391601562	80.19113159179688	-848.75	
364	3.63	420.5583190917969	1095.772827148438	-889.6327514648438	376.3754272460938	1087.306762695312	-763.4122314453125	406.0809020996094	1129.6708984375	-823.570556640625	191.1751098632812	1315.670288085938	-894.2626953125	425.3121948242188	1278.77294921875	-827.6760864257812	375.3427124023438	1568.044799804688	-806.126220703125	213.3834686279297	1450.994262695312	-867.5863037109375	463.9920349121094	1397.277587890625	-886.771484375	359.0234375	1539.0615234375	-708.6881713867188	260.7723693847656	1513.66259765625	-663.3800659179688	292.0409851074219	1382.601318359375	-597.2786254882812	329.444580078125	1169.626708984375	-583.086669921875	402.2542114257812	1176.344482421875	-634.885498046875	292.7285461425781	898.53125	-644.8392333984375	374.8175659179688	889.4600830078125	-609.7014770507812	338.6836547851562	1052.709594726562	-583.1259765625	332.4407043457031	712.268798828125	-682.9351196289062	364.5672912597656	809.8877563476562	-615.8096313476562	299.7384643554688	806.0501098632812	-640.144287109375	369.5838623046875	1564.293334960938	-994.5946044921875	405.8182983398438	1498.950805664062	-1058.405883789062	417.8916625976562	1210.89111328125	-1126.677124023438	405.14697265625	1192.32666015625	-1031.0234375	235.2613220214844	1000.262023925781	-1181.482666015625	311.8346252441406	972.874267578125	-1200.188110351562	387.6513366699219	1143.8564453125	-1158.432373046875	174.1231231689453	816.2443237304688	-1204.584350585938	187.4700775146484	903.8967895507812	-1213.477783203125	258.2734680175781	886.0048828125	-1230.693481445312	295.2777709960938	1757.711181640625	-884.7816772460938	130.9559173583984	1754.416870117188	-736.84912109375	118.887336730957	1782.412475585938	-864.9368286132812	312.0912780761719	1734.698364257812	-753.58349609375	244.9430084228516	989.6077880859375	-706.41552734375	359.3367919921875	1004.951354980469	-1051.756958007812	261.5753173828125	1067.627685546875	-1037.6708984375	166.0075378417969	1056.66162109375	-788.9478759765625	73.13201904296875	529.2382202148438	-815.4872436523438	146.7960205078125	647.6113891601562	-755.0698852539062	-19.54294204711914	36.60983276367188	-903.0718383789062	71.87469482421875	264.2001647949219	-830.1646728515625	-231.0516357421875	122.1908950805664	-930.3987426757812	-164.4044342041016	97.85636138916016	-973.1517944335938	-132.4714202880859	71.92851257324219	-867.3783569335938	41.4134635925293	25.99069595336914	-970.6732788085938	438.4688720703125	517.571533203125	-1024.645751953125	370.9162902832031	793.4375610351562	-1054.257446289062	702.9985961914062	68.87499237060547	-921.281005859375	514.5726928710938	397.8417053222656	-1013.174194335938	480.0091247558594	35.04114532470703	-1000.520263671875	510.4138488769531	37.25233459472656	-931.7818603515625	603.5459594726562	36.25167083740234	-1010.1953125	725.617431640625	86.59365081787109	-850.6688232421875	
365	3.64	408.3465270996094	1095.545288085938	-891.761474609375	364.9234619140625	1087.232055664062	-765.2427978515625	394.3871765136719	1129.369750976562	-825.6077270507812	179.5206909179688	1315.829467773438	-894.5306396484375	414.05126953125	1278.36376953125	-829.6976318359375	365.1900939941406	1567.788818359375	-807.314453125	202.4063568115234	1451.020385742188	-867.7733154296875	452.7609252929688	1396.795776367188	-888.7537231445312	349.4438781738281	1538.650390625	-709.7680053710938	251.4268951416016	1513.482177734375	-663.8214111328125	282.8351745605469	1382.278686523438	-598.0867919921875	319.9137268066406	1169.208984375	-584.4788818359375	392.337890625	1175.837524414062	-636.6953735351562	281.9279174804688	898.3069458007812	-646.536865234375	364.1887512207031	888.8987426757812	-611.8740234375	328.6660766601562	1052.21826171875	-584.7958984375	321.0758972167969	712.0150146484375	-685.5957641601562	353.7263793945312	809.3592529296875	-618.2422485351562	288.7809448242188	805.7679443359375	-642.253662109375	358.0224609375	1564.11669921875	-995.846435546875	393.8106689453125	1498.607055664062	-1059.748901367188	406.2705688476562	1210.275146484375	-1126.62060546875	393.6388854980469	1192.231079101562	-1030.97314453125	224.5756683349609	998.6394653320312	-1180.361450195312	301.3181762695312	971.6021728515625	-1199.01416015625	376.3656921386719	1143.075317382812	-1158.107055664062	164.2328186035156	814.2284545898438	-1202.560913085938	177.1753692626953	901.8502807617188	-1211.82666015625	248.0841827392578	884.2311401367188	-1229.053588867188	285.1675415039062	1757.613647460938	-885.4862670898438	122.0262908935547	1755.02392578125	-736.2218017578125	108.9732131958008	1782.868408203125	-864.283447265625	302.9739074707031	1734.750854492188	-754.4031982421875	233.5213775634766	990.01806640625	-707.1400146484375	346.0130920410156	1004.488830566406	-1053.383178710938	248.2535705566406	1067.48388671875	-1038.705078125	154.2787322998047	1056.871215820312	-789.3178100585938	63.7253303527832	528.3765869140625	-815.76171875	135.9966888427734	647.8319702148438	-756.5589599609375	-20.31374549865723	34.44020080566406	-902.76123046875	66.27862548828125	262.8656005859375	-830.4284057617188	-234.9433746337891	113.1241607666016	-926.8780517578125	-168.2953796386719	90.94208526611328	-970.7474365234375	-133.5674438476562	66.43933868408203	-865.4678955078125	39.5940055847168	25.59714317321777	-971.5458374023438	426.9549255371094	517.2990112304688	-1028.004760742188	357.9712829589844	793.1262817382812	-1056.379760742188	701.6649169921875	73.52906799316406	-923.1500244140625	506.2755432128906	399.2794189453125	-1016.137268066406	479.9186401367188	35.05835723876953	-1000.420471191406	510.193603515625	38.10654830932617	-932.1890258789062	602.91259765625	36.39144134521484	-1010.825744628906	723.8172607421875	93.75575256347656	-852.9573364257812	
